<?xml version="1.0" encoding="UTF-8"?>
<svg version="1.1" xmlns="http://www.w3.org/2000/svg" width="1024" height="1024">
<path d="M0 0 C1.33593159 0.25914505 2.67186951 0.51825749 4.0078125 0.77734375 C29.80382136 5.95856863 54.02610659 15.91498534 75 32 C75.88558594 32.67675781 76.77117188 33.35351562 77.68359375 34.05078125 C89.270299 43.13320622 89.270299 43.13320622 94 48 C94 48.66 94 49.32 94 50 C94.66 50 95.32 50 96 50 C99.26047958 53.44317887 102.09742873 57.253956 105 61 C105.79019531 62.00289063 106.58039062 63.00578125 107.39453125 64.0390625 C124.35347623 86.22621188 132.72772263 110.76327298 137 138 C163.44078802 142.31504694 189.59598465 145.23673563 216.35791016 146.26611328 C217.19358521 146.30100357 218.02926025 146.33589386 218.89025879 146.37184143 C220.45028717 146.4365618 222.01060315 146.49485138 223.57116699 146.54502869 C235.12777099 147.03606211 244.79541365 150.16319923 252.875 158.8125 C260.1966578 167.82642776 261.74857458 177.66249769 261 189 C257.96289853 207.96394856 245.81913899 224.14461077 230.69921875 235.5625 C196.32438167 260.21448362 154.35386962 265.25716002 113.16064453 261.01464844 C108.84805328 260.99466115 105.37058676 261.76647192 102.125 264.6875 C100.50009743 268.02757751 100.55644787 270.32485376 101 274 C104.27050987 280.67729099 110.13000321 284.05056822 116.10546875 288.109375 C125.56509114 294.61030892 133.79971897 301.98599167 142 310 C142.6197168 310.59925293 143.23943359 311.19850586 143.87792969 311.81591797 C151.45213043 319.15007725 158.59330492 326.60188105 165 335 C165.41813965 335.54172852 165.8362793 336.08345703 166.26708984 336.64160156 C199.18432451 379.46643149 219.1746285 433.34773214 212.66845703 487.7734375 C209.6107632 510.77041125 203.30292607 532.77141724 194 554 C193.69513672 554.70995117 193.39027344 555.41990234 193.07617188 556.15136719 C182.62766698 580.30930346 167.97562964 602.71457067 150.47900391 622.33227539 C149.43101192 623.51399102 148.39253934 624.70418027 147.36083984 625.90014648 C137.59567547 637.21116363 126.9603296 648.01417946 115 657 C114.37996094 657.46937988 113.75992188 657.93875977 113.12109375 658.42236328 C89.44577787 676.25185282 63.79275813 691.19111409 36.21484375 702.11621094 C34.09130525 702.96356647 31.98280495 703.8409217 29.875 704.7265625 C7.4761962 713.98047885 -16.32841277 720.04605778 -40 725 C-40.84916992 725.17789063 -41.69833984 725.35578125 -42.57324219 725.5390625 C-55.38669355 728.1803629 -55.38669355 728.1803629 -62 728 C-62.33 728.66 -62.66 729.32 -63 730 C-65.31640625 730.34375 -65.31640625 730.34375 -68.5625 730.5 C-73.14626862 730.75902224 -77.71310041 731.04885895 -82.28515625 731.46875 C-129.40195285 735.79563846 -175.94218459 733.23997067 -222.53857422 725.56689453 C-225.5349588 725.07616206 -228.53315575 724.607124 -231.53515625 724.15234375 C-240.09948009 722.83610546 -248.41666194 721.03087257 -256.75244141 718.63623047 C-259.3434152 717.90278731 -261.94253523 717.20306078 -264.54296875 716.50390625 C-312.76887418 703.44006238 -362.17748513 684.96679981 -402 654 C-403.43928154 652.8986637 -404.87947226 651.79851506 -406.3203125 650.69921875 C-408.63430136 648.93338169 -410.946855 647.16590956 -413.25341797 645.39038086 C-413.95354004 644.8516333 -414.65366211 644.31288574 -415.375 643.7578125 C-416.00148438 643.2745752 -416.62796875 642.79133789 -417.2734375 642.29345703 C-418.81028656 641.14212413 -420.40223107 640.06517929 -422 639 C-422 638.34 -422 637.68 -422 637 C-422.58845703 636.73227783 -423.17691406 636.46455566 -423.78320312 636.1887207 C-426.02748592 634.98526113 -427.61268576 633.71413505 -429.46875 631.98046875 C-430.11634277 631.37702637 -430.76393555 630.77358398 -431.43115234 630.15185547 C-432.11387207 629.50361816 -432.7965918 628.85538086 -433.5 628.1875 C-434.20979004 627.51605957 -434.91958008 626.84461914 -435.65087891 626.15283203 C-447.37881225 614.95810655 -457.78514168 603.03964165 -467 589.6875 C-467.66 588.800625 -468.32 587.91375 -469 587 C-469.66 587 -470.32 587 -471 587 C-471.10441406 586.26136719 -471.20882812 585.52273438 -471.31640625 584.76171875 C-472.06249415 581.74752362 -473.04894614 580.25206723 -474.9375 577.8125 C-482.83172333 566.88947262 -488.79907609 554.67745284 -494.625 542.5625 C-495.28205933 541.20354614 -495.28205933 541.20354614 -495.95239258 539.81713867 C-496.55216919 538.54833862 -496.55216919 538.54833862 -497.1640625 537.25390625 C-497.51936035 536.50439697 -497.8746582 535.7548877 -498.24072266 534.98266602 C-499 533 -499 533 -499 530 C-499.99 529.67 -500.98 529.34 -502 529 C-502 527.68 -502 526.36 -502 525 C-502.62658762 522.72603319 -502.62658762 522.72603319 -503.53125 520.375 C-503.84707031 519.50359375 -504.16289062 518.6321875 -504.48828125 517.734375 C-504.82214844 516.83203125 -505.15601563 515.9296875 -505.5 515 C-506.16211745 513.21049337 -506.8185981 511.41888852 -507.46875 509.625 C-507.76201172 508.83351563 -508.05527344 508.04203125 -508.35742188 507.2265625 C-509 505 -509 505 -509 501 C-509.66 500.67 -510.32 500.34 -511 500 C-511.73460935 497.16033362 -512.33794286 494.37896501 -512.875 491.5 C-513.04499512 490.6128833 -513.21499023 489.7257666 -513.39013672 488.81176758 C-513.94279395 485.87720338 -514.47507965 482.93964874 -515 480 C-515.17853516 479.00145996 -515.35707031 478.00291992 -515.54101562 476.97412109 C-526.98596961 411.85233291 -524.31674506 334.08837463 -485.80859375 277.48046875 C-484.91333984 276.25263672 -484.91333984 276.25263672 -484 275 C-483.42983154 274.20843506 -483.42983154 274.20843506 -482.84814453 273.40087891 C-476.02547831 263.98874311 -469.0807668 254.43772616 -457 252 C-444.68261844 251.09660953 -437.15748472 254.33459082 -427.68359375 262.33203125 C-425.5036258 264.49176748 -423.65735611 266.84653018 -421.75 269.25 C-413.28975446 279.73395876 -403.65071106 286.55245469 -392 293 C-391.13503906 293.48339844 -390.27007812 293.96679688 -389.37890625 294.46484375 C-370.64702582 304.35199143 -349.46643015 309.27491588 -328.36328125 309.859375 C-325 310 -325 310 -322.23046875 310.578125 C-319.84105646 311.21759016 -319.84105646 311.21759016 -317 310 C-317 310.66 -317 311.32 -317 312 C-286.42170143 310.62717553 -256.97228813 306.24843219 -227.10906982 299.47772217 C-219.43078212 297.73852501 -211.74791361 296.01990895 -204.0625 294.3125 C-202.73119049 294.01611633 -202.73119049 294.01611633 -201.37298584 293.71374512 C-189.78149194 291.14258843 -178.24797724 288.82751302 -166.4453125 287.4375 C-163.02627854 287.11664872 -163.02627854 287.11664872 -160 286 C-160.79664063 284.96101563 -161.59328125 283.92203125 -162.4140625 282.8515625 C-168.03880229 275.46532575 -173.52629481 268.16254982 -178 260 C-178.66 260.33 -179.32 260.66 -180 261 C-180.09152344 260.15179688 -180.18304688 259.30359375 -180.27734375 258.4296875 C-181.09195739 254.56357521 -182.67817873 251.54235851 -184.5625 248.125 C-205.19191523 208.74585365 -206.36466465 161.48094656 -193.78613281 119.45605469 C-186.00182388 95.136133 -173.54725701 73.57141598 -156 55 C-154.84935973 53.64991542 -153.7033304 52.29588411 -152.5625 50.9375 C-126.40492837 21.22912679 -83.88668645 1.73516522 -44.7512207 -1.16674805 C-14.59653367 -3.06282181 -14.59653367 -3.06282181 0 0 Z M-91 47 C-91.66580078 47.33902344 -92.33160156 47.67804688 -93.01757812 48.02734375 C-109.34486571 56.47729543 -124.35534991 67.67561871 -136 82 C-136.76054687 82.92296875 -137.52109375 83.8459375 -138.3046875 84.796875 C-157.74419979 108.8891356 -168.32808397 137.06955341 -170 168 C-170.05414063 168.97066406 -170.10828125 169.94132813 -170.1640625 170.94140625 C-171.15558306 206.23052429 -155.68315324 238.15238294 -134 265 C-133.48050781 265.67417969 -132.96101563 266.34835937 -132.42578125 267.04296875 C-127.42877569 273.29996426 -120.90311344 278.155358 -114.46484375 282.84765625 C-108.34390375 287.33362063 -104.31342676 291.7094726 -102.0625 299.0625 C-101.95070781 304.31673294 -103.26540104 307.90859584 -106.1875 312.25 C-112.89696879 318.81036949 -119.59872949 318.32537715 -128.56561279 318.30804443 C-158.90027743 318.37174156 -188.12699146 325.57241919 -217.61621094 332.02294922 C-282.18665054 346.13376836 -357.26147345 355.32624618 -416.2734375 318.140625 C-428.23783526 310.23654322 -439.2150941 300.34201467 -448 289 C-453.1719943 289.67843878 -454.89687952 291.46173273 -458.11328125 295.3828125 C-485.39482115 333.22677054 -491.9411295 383.54608572 -489.5625 428.9375 C-489.52334473 429.70102783 -489.48418945 430.46455566 -489.44384766 431.2512207 C-489.25902911 434.37083026 -488.99317968 437.02046095 -488 440 C-487.86842091 441.76900773 -487.7696453 443.5405086 -487.6875 445.3125 C-486.97179426 455.34356325 -484.95380971 465.14870502 -483 475 C-482.86255371 475.72670898 -482.72510742 476.45341797 -482.58349609 477.20214844 C-480.65788734 487.2681642 -477.47922514 496.78578357 -474.0625 506.4375 C-473.64339355 507.6229541 -473.22428711 508.8084082 -472.79248047 510.02978516 C-470.2813562 516.9526866 -467.40694141 523.47789372 -464 530 C-463.38834467 531.26656218 -462.78241323 532.53591263 -462.18359375 533.80859375 C-451.10425959 557.01009729 -435.87933408 577.59720874 -418 596 C-417.42137207 596.60440918 -416.84274414 597.20881836 -416.24658203 597.83154297 C-408.20628855 606.21388562 -399.9430401 613.85015355 -390.62158203 620.78417969 C-389.09369672 621.92974862 -387.59080686 623.10843917 -386.08984375 624.2890625 C-377.52250193 630.95909754 -368.36498355 636.53027084 -359 642 C-358.23187988 642.45133301 -357.46375977 642.90266602 -356.67236328 643.36767578 C-329.80044487 659.03026213 -299.27546909 672.55112583 -269 680 C-267.24771713 680.52631267 -265.49797601 681.0611181 -263.75 681.6015625 C-232.71597002 690.99071936 -201.25811324 696.14565949 -169 699 C-167.99431976 699.08927765 -167.99431976 699.08927765 -166.96832275 699.18035889 C-84.3636416 706.43136348 15.49036932 692.44915865 82 639 C83.32267089 638.12941389 84.65604138 637.27484922 86 636.4375 C90.85330443 633.25915753 95.19139595 629.57226048 99.5703125 625.78295898 C101.98390409 623.69486541 104.33968849 621.77354101 107 620 C107 619.34 107 618.68 107 618 C107.79857422 617.68869141 107.79857422 617.68869141 108.61328125 617.37109375 C111.96578825 615.44518547 114.49731302 612.79750377 117.1875 610.0625 C118.05024536 609.19177856 118.05024536 609.19177856 118.93041992 608.3034668 C123.97922996 603.14332222 128.54339016 597.67748188 133 592 C133.65226563 591.21496094 134.30453125 590.42992187 134.9765625 589.62109375 C164.42424391 554.01403675 184.13857292 504.82251398 180.79785156 458.17749023 C180.51306684 455.27793206 180.17800952 452.3904798 179.8125 449.5 C179.68375488 448.46915283 179.55500977 447.43830566 179.42236328 446.3762207 C177.60028753 432.82961973 173.88019014 419.98012129 169.125 407.1875 C168.86847656 406.48818359 168.61195313 405.78886719 168.34765625 405.06835938 C166.79637005 400.90171379 165.06134453 396.94809431 163 393 C162.68095703 392.36118896 162.36191406 391.72237793 162.03320312 391.06420898 C153.48421507 373.98441361 142.88616263 359.2090593 130.41796875 344.796875 C128.39085145 342.45209958 126.4111834 340.07694722 124.4375 337.6875 C123.633125 336.800625 122.82875 335.91375 122 335 C121.34 335 120.68 335 120 335 C120 334.34 120 333.68 120 333 C112.49034436 325.00058421 102.60210849 318.33416046 93.75 311.875 C89.58908779 308.81285681 85.86571652 305.28889197 82.1015625 301.7578125 C80.2009485 299.7861381 80.2009485 299.7861381 78 300 C77.89558594 299.45730469 77.79117188 298.91460937 77.68359375 298.35546875 C76.83617053 295.43549045 75.49574046 292.99325539 74.0625 290.3125 C67.92216752 278.19381024 67.96422627 267.85533098 72 255 C76.31766937 243.58616105 84.65357586 234.84186033 95.625 229.6875 C102.00518508 226.87689802 108.34624486 226.8875724 115.18359375 227.0078125 C117.0061742 227.02800793 118.82876627 227.04717525 120.65136719 227.06542969 C121.59733765 227.07586304 122.54330811 227.08629639 123.51794434 227.0970459 C156.25856484 227.41053012 190.22554235 225.41956612 217 204 C217 203.34 217 202.68 217 202 C217.66 202 218.32 202 219 202 C223.37429739 197.30070462 227.56364855 192.47438114 227.5 185.8125 C227.335 184.554375 227.17 183.29625 227 182 C219.54694354 180.25365979 212.31899814 179.61558075 204.6875 179.25 C188.48874018 178.33867737 172.3508825 176.78522322 156.20663834 175.20323181 C154.13258931 175.00074095 152.05832204 174.80064335 149.98397827 174.60119629 C146.03284234 174.22076578 142.08277584 173.8299287 138.1328125 173.4375 C136.34840004 173.26562164 136.34840004 173.26562164 134.52793884 173.090271 C114.07685113 171.01914924 114.07685113 171.01914924 107 163 C103.86931891 156.55133212 103.68981445 149.57847213 103.41357422 142.55151367 C103.08914392 135.47752262 101.72979424 128.87217169 100 122 C99.78089966 121.04468384 99.78089966 121.04468384 99.55737305 120.07006836 C94.59489065 101.63954351 82.76908214 85.71828825 70 72 C69.44699219 71.39285156 68.89398437 70.78570312 68.32421875 70.16015625 C44.55834757 45.0968926 9.62962319 32.9506417 -24.29736328 31.97485352 C-47.44588564 31.68620446 -70.31703376 36.4140625 -91 47 Z " fill="#030303" transform="translate(623,138)"/>
<path d="M0 0 C2.15260312 0.89120511 4.1806034 1.52713905 6.453125 2.015625 C6.453125 2.675625 6.453125 3.335625 6.453125 4.015625 C7.16339844 4.27472656 7.87367188 4.53382813 8.60546875 4.80078125 C19.02437029 9.24560756 27.49000824 17.16310709 35.453125 25.015625 C36.2575 25.80710937 37.061875 26.59859375 37.890625 27.4140625 C55.27207681 45.58009374 64.95096882 71.84858779 64.66015625 96.83203125 C63.1723631 134.59276913 46.09947689 165.57497717 19.203125 191.140625 C-13.47385998 219.95409182 -61.4819616 236.52340121 -105.01171875 236.00390625 C-108.39255807 235.75336395 -108.39255807 235.75336395 -110.546875 237.015625 C-113.01961075 236.92415148 -115.45742267 236.77563358 -117.921875 236.578125 C-124.808894 236.07984543 -131.63948133 235.89788534 -138.546875 236.015625 C-138.546875 235.355625 -138.546875 234.695625 -138.546875 234.015625 C-139.40023437 234.00144531 -140.25359375 233.98726562 -141.1328125 233.97265625 C-187.5530466 232.20198753 -237.76501174 213.90742179 -275.546875 187.015625 C-276.92359375 186.04882812 -276.92359375 186.04882812 -278.328125 185.0625 C-300.06086459 169.55655658 -319.76898959 151.21443309 -333.546875 128.140625 C-335.24434624 124.76725399 -335.24434624 124.76725399 -338.546875 124.015625 C-338.61003906 123.2215625 -338.67320312 122.4275 -338.73828125 121.609375 C-339.83182241 116.74919207 -342.0815783 112.84942102 -344.484375 108.515625 C-347.30033934 103.3935173 -349.72265191 98.58523367 -351.546875 93.015625 C-352.206875 92.685625 -352.866875 92.355625 -353.546875 92.015625 C-354.27539062 90.31616211 -354.27539062 90.31616211 -354.953125 88.10546875 C-355.20964844 87.28933105 -355.46617187 86.47319336 -355.73046875 85.63232422 C-355.99988281 84.76881348 -356.26929688 83.90530273 -356.546875 83.015625 C-357.11642905 81.32828831 -357.68940009 79.64210151 -358.265625 77.95703125 C-363.24153951 63.06919411 -368.28597474 47.85358787 -365.546875 32.015625 C-365.35768208 30.62002012 -365.16996612 29.22421342 -364.984375 27.828125 C-364.84 26.9 -364.695625 25.971875 -364.546875 25.015625 C-363.886875 25.345625 -363.226875 25.675625 -362.546875 26.015625 C-361.7734375 24.901875 -361.7734375 24.901875 -360.984375 23.765625 C-355.69282332 17.79566926 -350.74624081 16.48930152 -343.03369141 15.94433594 C-336.53573479 16.07718871 -330.43476573 17.97949794 -324.234375 19.765625 C-321.6154843 20.49765541 -318.99387822 21.21955406 -316.37109375 21.9375 C-315.39352615 22.20512146 -315.39352615 22.20512146 -314.39620972 22.47814941 C-295.4272339 27.59973467 -276.4999309 29.42123884 -256.921875 29.328125 C-256.09682465 29.32596985 -255.27177429 29.3238147 -254.42172241 29.32159424 C-210.68387758 29.1393598 -169.7620112 16.01264682 -128.98242188 1.33227539 C-86.47901022 -13.87453475 -42.29829626 -18.66796316 0 0 Z M-124.546875 35.015625 C-126.64650649 35.74660069 -128.74674894 36.47582428 -130.84765625 37.203125 C-141.063221 40.73805947 -141.063221 40.73805947 -151.25390625 44.34375 C-160.02266562 47.40618052 -168.95307294 49.81133681 -177.921875 52.203125 C-178.57648712 52.37779297 -179.23109924 52.55246094 -179.9055481 52.73242188 C-185.88203722 54.32177908 -191.85021852 55.8974076 -197.8984375 57.19140625 C-201.33597567 57.62675579 -201.33597567 57.62675579 -202.546875 59.015625 C-204.16037859 59.21593361 -205.78088419 59.36052595 -207.40234375 59.48046875 C-211.28348701 59.79937279 -215.11943779 60.20651345 -218.97265625 60.76953125 C-232.39395814 62.65702733 -245.57523862 63.3199704 -259.109375 63.328125 C-259.90058746 63.33143829 -260.69179993 63.33475159 -261.50698853 63.33816528 C-277.12675098 63.37688074 -292.17274396 61.75045138 -307.484375 58.578125 C-309.0322168 58.27165039 -309.0322168 58.27165039 -310.61132812 57.95898438 C-316.37204909 56.78935033 -321.92323907 55.37837593 -327.49047852 53.48413086 C-329.7272768 52.78738999 -329.7272768 52.78738999 -332.546875 54.015625 C-322.6874182 84.17994743 -309.56228812 110.79937116 -287.546875 134.015625 C-286.71542969 134.89992188 -285.88398438 135.78421875 -285.02734375 136.6953125 C-261.63142375 160.87908925 -230.9736601 176.87340119 -199.546875 188.015625 C-198.72767578 188.30663086 -197.90847656 188.59763672 -197.06445312 188.89746094 C-176.96605754 195.90795307 -153.94919597 202.015625 -132.546875 202.015625 C-132.546875 201.355625 -132.546875 200.695625 -132.546875 200.015625 C-131.73863281 200.50869141 -131.73863281 200.50869141 -130.9140625 201.01171875 C-127.99263392 202.25067444 -125.8341928 202.17870763 -122.671875 202.078125 C-118.48940352 202.00142931 -114.65386009 202.10296165 -110.546875 203.015625 C-110.546875 202.355625 -110.546875 201.695625 -110.546875 201.015625 C-109.886875 200.685625 -109.226875 200.355625 -108.546875 200.015625 C-108.216875 201.005625 -107.886875 201.995625 -107.546875 203.015625 C-63.01086782 200.13022659 -20.19909651 188.70939868 10.453125 154.015625 C22.01279795 139.83796529 30.99523746 121.65818893 31.453125 103.015625 C31.49179687 102.01273438 31.53046875 101.00984375 31.5703125 99.9765625 C31.99138654 79.99893845 25.63887327 63.9012781 12.453125 49.015625 C11.89882813 48.3659375 11.34453125 47.71625 10.7734375 47.046875 C1.7900957 37.21436159 -13.50872546 28.99577347 -26.546875 26.015625 C-27.46082031 25.7784375 -28.37476563 25.54125 -29.31640625 25.296875 C-30.32058594 25.0390625 -31.32476563 24.78125 -32.359375 24.515625 C-33.85404297 24.12890625 -33.85404297 24.12890625 -35.37890625 23.734375 C-65.85579732 16.81976593 -95.94178563 24.88158716 -124.546875 35.015625 Z " fill="#030303" transform="translate(596.546875,503.984375)"/>
<path d="M0 0 C10.3413514 9.08464252 16.43449869 18.2326449 17.98046875 32.03125 C18.66541892 43.09192681 15.50960653 51.88443373 9.16796875 60.84375 C8.71550781 61.49214844 8.26304687 62.14054687 7.796875 62.80859375 C2.22536027 70.02157458 -6.8610383 75.27218919 -15.83203125 76.84375 C-24.05318083 77.45714147 -31.87520208 77.48151845 -39.71875 74.59765625 C-42.06467939 73.76075353 -44.38384177 73.28536737 -46.83203125 72.84375 C-46.83203125 71.85375 -46.83203125 70.86375 -46.83203125 69.84375 C-47.57453125 69.59496094 -48.31703125 69.34617187 -49.08203125 69.08984375 C-56.55911724 65.70178916 -60.84529101 57.83825421 -63.8671875 50.54296875 C-67.87423496 39.33296957 -67.60058564 29.14941316 -63.83203125 17.84375 C-57.51475173 5.1602198 -48.7375315 -2.49871299 -35.29296875 -7.0078125 C-23.05771917 -9.99687999 -10.03690591 -7.6418925 0 0 Z M-34.20703125 29.59375 C-35.12993185 32.91619215 -35.24719401 35.40382996 -34.83203125 38.84375 C-33.04726884 41.81614241 -30.9799507 44.26979027 -27.83203125 45.84375 C-23.41322295 46.3536125 -21.32431224 46.13547207 -17.45703125 43.84375 C-14.61758129 40.59866433 -13.8811173 38.95989982 -13.66015625 34.76953125 C-14.0082427 30.86938081 -15.9738327 28.70194855 -18.64453125 26.03125 C-24.03442008 23.10531035 -30.44147232 24.80122045 -34.20703125 29.59375 Z " fill="#030303" transform="translate(654.83203125,241.15625)"/>
<path d="M0 0 C0.66 0.33 1.32 0.66 2 1 C-4.6 7.6 -11.2 14.2 -18 21 C-18.66 20.67 -19.32 20.34 -20 20 C-7.23404255 5.85106383 -7.23404255 5.85106383 0 0 Z " fill="#242424" transform="translate(484,176)"/>
<path d="M0 0 C0.66 0.33 1.32 0.66 2 1 C-0.97 3.97 -3.94 6.94 -7 10 C-7.66 9.67 -8.32 9.34 -9 9 C-8.67 8.01 -8.34 7.02 -8 6 C-7.67 6.33 -7.34 6.66 -7 7 C-6.401875 6.21625 -5.80375 5.4325 -5.1875 4.625 C-3 2 -3 2 0 0 Z " fill="#202020" transform="translate(241,523)"/>
<path d="M0 0 C0.66 0 1.32 0 2 0 C2 0.66 2 1.32 2 2 C7.94 1.505 7.94 1.505 14 1 C14 1.66 14 2.32 14 3 C9.38 3 4.76 3 0 3 C0 2.01 0 1.02 0 0 Z " fill="#222222" transform="translate(304,448)"/>
<path d="M0 0 C1.98 0.99 1.98 0.99 4 2 C2.68 1.67 1.36 1.34 0 1 C0 0.67 0 0.34 0 0 Z " fill="#20201F" transform="translate(304,838)"/>
<path d="M0 0 C0.99 0.33 1.98 0.66 3 1 C2.01 1.33 1.02 1.66 0 2 C0 1.34 0 0.68 0 0 Z " fill="#1E1D1C" transform="translate(435,832)"/>
<path d="M0 0 C4 1 4 1 4 1 Z " fill="#222120" transform="translate(416,867)"/>
<path d="M0 0 C1 4 1 4 1 4 Z " fill="#171715" transform="translate(802,603)"/>
<path d="M0 0 C0.66 0.33 1.32 0.66 2 1 C1.01 1 0.02 1 -1 1 C-0.67 0.67 -0.34 0.34 0 0 Z " fill="#1C1C1B" transform="translate(488,496)"/>
<path d="M0 0 C0.33 0.99 0.66 1.98 1 3 C0.34 2.67 -0.32 2.34 -1 2 C-0.67 1.34 -0.34 0.68 0 0 Z " fill="#1D1B1B" transform="translate(527,488)"/>
<path d="M0 0 C0.99 0.495 0.99 0.495 2 1 C1.67 1.66 1.34 2.32 1 3 C0.67 2.01 0.34 1.02 0 0 Z " fill="#20211F" transform="translate(690,419)"/>
<path d="M0 0 C4 1 4 1 4 1 Z " fill="#1F1F1E" transform="translate(811,318)"/>
<path d="M0 0 C1 4 1 4 1 4 Z " fill="#171717" transform="translate(455,296)"/>
<path d="M0 0 C3 1 3 1 3 1 Z " fill="#222120" transform="translate(432,869)"/>
<path d="M0 0 C3 1 3 1 3 1 Z " fill="#1B1B1A" transform="translate(309,800)"/>
<path d="M0 0 C0.66 0 1.32 0 2 0 C1.67 0.66 1.34 1.32 1 2 C0.67 1.34 0.34 0.68 0 0 Z " fill="#1E1E1E" transform="translate(539,734)"/>
<path d="" fill="#201F1E" transform="translate(0,0)"/>
<path d="" fill="#1A1A19" transform="translate(0,0)"/>
<path d="" fill="#22201F" transform="translate(0,0)"/>
<path d="M0 0 C3 1 3 1 3 1 Z " fill="#1D1D1C" transform="translate(281,563)"/>
<path d="" fill="#1B1A1A" transform="translate(0,0)"/>
<path d="M0 0 C0.66 0.66 1.32 1.32 2 2 C1.34 2 0.68 2 0 2 C0 1.34 0 0.68 0 0 Z " fill="#1F1E1D" transform="translate(608,554)"/>
<path d="" fill="#1A1A1A" transform="translate(0,0)"/>
<path d="" fill="#191B1B" transform="translate(0,0)"/>
<path d="M0 0 C0.99 0.495 0.99 0.495 2 1 C1.01 1.495 1.01 1.495 0 2 C0 1.34 0 0.68 0 0 Z " fill="#1B1A1B" transform="translate(768,505)"/>
<path d="M0 0 C3 1 3 1 3 1 Z " fill="#212020" transform="translate(376,440)"/>
<path d="M0 0 C3 1 3 1 3 1 Z " fill="#232322" transform="translate(171,388)"/>
<path d="M0 0 C3 1 3 1 3 1 Z " fill="#22211E" transform="translate(820,282)"/>
<path d="M0 0 C3 1 3 1 3 1 Z " fill="#21201F" transform="translate(569,174)"/>
<path d="M0 0 C3 1 3 1 3 1 Z " fill="#222221" transform="translate(651,144)"/>
<path d="M0 0 C2 1 2 1 2 1 Z " fill="#232222" transform="translate(532,871)"/>
<path d="M0 0 C2 1 2 1 2 1 Z " fill="#242221" transform="translate(443,870)"/>
<path d="M0 0 C2 1 2 1 2 1 Z " fill="#252525" transform="translate(551,869)"/>
<path d="M0 0 C2 1 2 1 2 1 Z " fill="#232221" transform="translate(387,862)"/>
<path d="" fill="#20201E" transform="translate(0,0)"/>
<path d="M0 0 C2 1 2 1 2 1 Z " fill="#1F201D" transform="translate(546,833)"/>
<path d="M0 0 C2 1 2 1 2 1 Z " fill="#1E1E1D" transform="translate(553,832)"/>
<path d="M0 0 C2 1 2 1 2 1 Z " fill="#1F1D1D" transform="translate(587,824)"/>
<path d="" fill="#1F1F1E" transform="translate(0,0)"/>
<path d="M0 0 C2 1 2 1 2 1 Z " fill="#1F1E1C" transform="translate(359,817)"/>
<path d="M0 0 C2 1 2 1 2 1 Z " fill="#1C1D1B" transform="translate(317,803)"/>
<path d="M0 0 C2 1 2 1 2 1 Z " fill="#1C1A1A" transform="translate(661,800)"/>
<path d="M0 0 C2 1 2 1 2 1 Z " fill="#1D1D1D" transform="translate(275,784)"/>
<path d="" fill="#201F1D" transform="translate(0,0)"/>
<path d="" fill="#1F2021" transform="translate(0,0)"/>
<path d="" fill="#1F1F1D" transform="translate(0,0)"/>
<path d="M0 0 C2 1 2 1 2 1 Z " fill="#181817" transform="translate(395,727)"/>
<path d="" fill="#1C1C1B" transform="translate(0,0)"/>
<path d="M0 0 C2 1 2 1 2 1 Z " fill="#1A1A19" transform="translate(345,707)"/>
<path d="M0 0 C2 1 2 1 2 1 Z " fill="#1C191B" transform="translate(500,704)"/>
<path d="M0 0 C2 1 2 1 2 1 Z " fill="#20201F" transform="translate(493,704)"/>
<path d="M0 0 C2 1 2 1 2 1 Z " fill="#1F1E1C" transform="translate(475,704)"/>
<path d="M0 0 C2 1 2 1 2 1 Z " fill="#1C1C1D" transform="translate(372,680)"/>
<path d="M0 0 C2 1 2 1 2 1 Z " fill="#1C1C1A" transform="translate(597,664)"/>
<path d="" fill="#1F1F1D" transform="translate(0,0)"/>
<path d="" fill="#212020" transform="translate(0,0)"/>
<path d="" fill="#22211E" transform="translate(0,0)"/>
<path d="M0 0 C2 1 2 1 2 1 Z " fill="#1D1C1A" transform="translate(801,611)"/>
<path d="" fill="#21211E" transform="translate(0,0)"/>
<path d="M0 0 C2 1 2 1 2 1 Z " fill="#1D1D1B" transform="translate(372,567)"/>
<path d="M0 0 C2 1 2 1 2 1 Z " fill="#1E1F1D" transform="translate(379,566)"/>
<path d="" fill="#1D1D1D" transform="translate(0,0)"/>
<path d="" fill="#1F1F1E" transform="translate(0,0)"/>
<path d="M0 0 C2 1 2 1 2 1 Z " fill="#1C1C1B" transform="translate(336,532)"/>
<path d="M0 0 C2 1 2 1 2 1 Z " fill="#1D1B1A" transform="translate(324,532)"/>
<path d="M0 0 C2 1 2 1 2 1 Z " fill="#232120" transform="translate(384,528)"/>
<path d="M0 0 C2 1 2 1 2 1 Z " fill="#20201F" transform="translate(371,528)"/>
<path d="M0 0 C2 1 2 1 2 1 Z " fill="#1C1C1C" transform="translate(294,528)"/>
<path d="M0 0 C2 1 2 1 2 1 Z " fill="#222221" transform="translate(540,527)"/>
<path d="" fill="#1F1F1F" transform="translate(0,0)"/>
<path d="" fill="#1D1D1C" transform="translate(0,0)"/>
<path d="M0 0 C2 1 2 1 2 1 Z " fill="#1B1C1B" transform="translate(440,513)"/>
<path d="M0 0 C2 1 2 1 2 1 Z " fill="#212121" transform="translate(600,504)"/>
<path d="M0 0 C2 1 2 1 2 1 Z " fill="#21211F" transform="translate(583,497)"/>
<path d="M0 0 C2 1 2 1 2 1 Z " fill="#1E1D1E" transform="translate(523,488)"/>
<path d="M0 0 C2 1 2 1 2 1 Z " fill="#201F1E" transform="translate(227,471)"/>
<path d="" fill="#201F1F" transform="translate(0,0)"/>
<path d="M0 0 C2 1 2 1 2 1 Z " fill="#1E1E1C" transform="translate(736,469)"/>
<path d="M0 0 C2 1 2 1 2 1 Z " fill="#1E1E1E" transform="translate(451,462)"/>
<path d="M0 0 C2 1 2 1 2 1 Z " fill="#1E1F1C" transform="translate(208,459)"/>
<path d="M0 0 C2 1 2 1 2 1 Z " fill="#1E1C1D" transform="translate(315,448)"/>
<path d="M0 0 C2 1 2 1 2 1 Z " fill="#1C1B1A" transform="translate(259,441)"/>
<path d="M0 0 C2 1 2 1 2 1 Z " fill="#212020" transform="translate(407,433)"/>
<path d="M0 0 C2 1 2 1 2 1 Z " fill="#171616" transform="translate(456,424)"/>
<path d="M0 0 C2 1 2 1 2 1 Z " fill="#1A1A1A" transform="translate(448,407)"/>
<path d="M0 0 C2 1 2 1 2 1 Z " fill="#1F1E1E" transform="translate(795,398)"/>
<path d="M0 0 C2 1 2 1 2 1 Z " fill="#20201F" transform="translate(702,376)"/>
<path d="" fill="#1D1D1C" transform="translate(0,0)"/>
<path d="M0 0 C2 1 2 1 2 1 Z " fill="#1E1D1F" transform="translate(828,319)"/>
<path d="M0 0 C2 1 2 1 2 1 Z " fill="#22201F" transform="translate(636,319)"/>
<path d="M0 0 C2 1 2 1 2 1 Z " fill="#201D1E" transform="translate(633,319)"/>
<path d="M0 0 C2 1 2 1 2 1 Z " fill="#1C1C1B" transform="translate(785,315)"/>
<path d="" fill="#1F1F1E" transform="translate(0,0)"/>
<path d="M0 0 C2 1 2 1 2 1 Z " fill="#1F1D1D" transform="translate(761,273)"/>
<path d="" fill="#1C1A19" transform="translate(0,0)"/>
<path d="" fill="#1C1C1B" transform="translate(0,0)"/>
<path d="" fill="#1F211F" transform="translate(0,0)"/>
<path d="M0 0 C2 1 2 1 2 1 Z " fill="#201F1F" transform="translate(619,174)"/>
<path d="M0 0 C2 1 2 1 2 1 Z " fill="#231F20" transform="translate(685,160)"/>
<path d="M0 0 C2 1 2 1 2 1 Z " fill="#242423" transform="translate(622,136)"/>
<path d="" fill="#202223" transform="translate(0,0)"/>
<path d="" fill="#262422" transform="translate(0,0)"/>
<path d="" fill="#21201F" transform="translate(0,0)"/>
<path d="" fill="#232221" transform="translate(0,0)"/>
<path d="" fill="#1F1F1F" transform="translate(0,0)"/>
<path d="" fill="#222221" transform="translate(0,0)"/>
<path d="" fill="#232423" transform="translate(0,0)"/>
<path d="" fill="#242221" transform="translate(0,0)"/>
<path d="" fill="#221F1F" transform="translate(0,0)"/>
<path d="" fill="#242321" transform="translate(0,0)"/>
<path d="" fill="#212021" transform="translate(0,0)"/>
<path d="" fill="#221F1E" transform="translate(0,0)"/>
<path d="" fill="#222120" transform="translate(0,0)"/>
<path d="" fill="#212120" transform="translate(0,0)"/>
<path d="" fill="#222221" transform="translate(0,0)"/>
<path d="" fill="#21211F" transform="translate(0,0)"/>
<path d="" fill="#211F1E" transform="translate(0,0)"/>
<path d="" fill="#222020" transform="translate(0,0)"/>
<path d="" fill="#201D1F" transform="translate(0,0)"/>
<path d="" fill="#20201F" transform="translate(0,0)"/>
<path d="" fill="#1F1D1E" transform="translate(0,0)"/>
<path d="" fill="#1D1E1B" transform="translate(0,0)"/>
<path d="" fill="#1C1B1A" transform="translate(0,0)"/>
<path d="" fill="#1E1D1B" transform="translate(0,0)"/>
<path d="" fill="#191B1A" transform="translate(0,0)"/>
<path d="" fill="#1D1D1B" transform="translate(0,0)"/>
<path d="" fill="#1B1B1A" transform="translate(0,0)"/>
<path d="" fill="#1F1F1D" transform="translate(0,0)"/>
<path d="" fill="#1C1E1C" transform="translate(0,0)"/>
<path d="" fill="#1D1F1C" transform="translate(0,0)"/>
<path d="" fill="#1C1E1A" transform="translate(0,0)"/>
<path d="" fill="#222221" transform="translate(0,0)"/>
<path d="" fill="#201E1E" transform="translate(0,0)"/>
<path d="" fill="#1F1F1C" transform="translate(0,0)"/>
<path d="" fill="#1D1B19" transform="translate(0,0)"/>
<path d="" fill="#1E1C1C" transform="translate(0,0)"/>
<path d="" fill="#1D1E1C" transform="translate(0,0)"/>
<path d="" fill="#1F1F1C" transform="translate(0,0)"/>
<path d="" fill="#1F1F1F" transform="translate(0,0)"/>
<path d="" fill="#1E1D1B" transform="translate(0,0)"/>
<path d="" fill="#181716" transform="translate(0,0)"/>
<path d="" fill="#1F201D" transform="translate(0,0)"/>
<path d="" fill="#1D1E1C" transform="translate(0,0)"/>
<path d="" fill="#202121" transform="translate(0,0)"/>
<path d="" fill="#1F1F1D" transform="translate(0,0)"/>
<path d="" fill="#1D1D1B" transform="translate(0,0)"/>
<path d="" fill="#1E1E1D" transform="translate(0,0)"/>
<path d="" fill="#1C1C1A" transform="translate(0,0)"/>
<path d="" fill="#1D1E1D" transform="translate(0,0)"/>
<path d="" fill="#232323" transform="translate(0,0)"/>
<path d="" fill="#1F2020" transform="translate(0,0)"/>
<path d="" fill="#22201E" transform="translate(0,0)"/>
<path d="" fill="#1A1A1A" transform="translate(0,0)"/>
<path d="" fill="#211F20" transform="translate(0,0)"/>
<path d="" fill="#1F1C1C" transform="translate(0,0)"/>
<path d="" fill="#1E1E1E" transform="translate(0,0)"/>
<path d="" fill="#1F211D" transform="translate(0,0)"/>
<path d="" fill="#1E1D1C" transform="translate(0,0)"/>
<path d="" fill="#201F1D" transform="translate(0,0)"/>
<path d="" fill="#1F1E1F" transform="translate(0,0)"/>
<path d="" fill="#1D1B1B" transform="translate(0,0)"/>
<path d="" fill="#1D1D1C" transform="translate(0,0)"/>
<path d="" fill="#1D1D1C" transform="translate(0,0)"/>
<path d="" fill="#1E1D19" transform="translate(0,0)"/>
<path d="" fill="#202021" transform="translate(0,0)"/>
<path d="" fill="#201C1D" transform="translate(0,0)"/>
<path d="" fill="#1C1C1C" transform="translate(0,0)"/>
<path d="" fill="#21221F" transform="translate(0,0)"/>
<path d="" fill="#1D1C1A" transform="translate(0,0)"/>
<path d="" fill="#1E1D1C" transform="translate(0,0)"/>
<path d="" fill="#1B1D1A" transform="translate(0,0)"/>
<path d="" fill="#1B1B1A" transform="translate(0,0)"/>
<path d="" fill="#222120" transform="translate(0,0)"/>
<path d="" fill="#212220" transform="translate(0,0)"/>
<path d="" fill="#1D1D1A" transform="translate(0,0)"/>
<path d="" fill="#222120" transform="translate(0,0)"/>
<path d="" fill="#1F1C1B" transform="translate(0,0)"/>
<path d="" fill="#211F1D" transform="translate(0,0)"/>
<path d="" fill="#1C1C1C" transform="translate(0,0)"/>
<path d="" fill="#201D1D" transform="translate(0,0)"/>
<path d="" fill="#1F1E1E" transform="translate(0,0)"/>
<path d="" fill="#1B1E1A" transform="translate(0,0)"/>
<path d="" fill="#1D1D1E" transform="translate(0,0)"/>
<path d="" fill="#1C1D1B" transform="translate(0,0)"/>
<path d="" fill="#1B1A19" transform="translate(0,0)"/>
<path d="" fill="#202221" transform="translate(0,0)"/>
<path d="" fill="#20201D" transform="translate(0,0)"/>
<path d="" fill="#21211F" transform="translate(0,0)"/>
<path d="" fill="#1A191A" transform="translate(0,0)"/>
<path d="" fill="#1F201D" transform="translate(0,0)"/>
<path d="" fill="#1A1D1C" transform="translate(0,0)"/>
<path d="" fill="#202120" transform="translate(0,0)"/>
<path d="" fill="#232020" transform="translate(0,0)"/>
<path d="" fill="#21201F" transform="translate(0,0)"/>
<path d="" fill="#211F20" transform="translate(0,0)"/>
<path d="" fill="#1F1C1B" transform="translate(0,0)"/>
<path d="" fill="#1C1C1B" transform="translate(0,0)"/>
<path d="" fill="#1E1E1F" transform="translate(0,0)"/>
<path d="" fill="#201F1F" transform="translate(0,0)"/>
<path d="" fill="#21211E" transform="translate(0,0)"/>
<path d="" fill="#1F1F1E" transform="translate(0,0)"/>
<path d="" fill="#1F211F" transform="translate(0,0)"/>
<path d="" fill="#1F201F" transform="translate(0,0)"/>
<path d="" fill="#222121" transform="translate(0,0)"/>
<path d="" fill="#221F22" transform="translate(0,0)"/>
<path d="" fill="#181916" transform="translate(0,0)"/>
<path d="" fill="#20201E" transform="translate(0,0)"/>
<path d="" fill="#1E1E1B" transform="translate(0,0)"/>
<path d="" fill="#212221" transform="translate(0,0)"/>
<path d="" fill="#201E1E" transform="translate(0,0)"/>
<path d="" fill="#1E1E1A" transform="translate(0,0)"/>
<path d="" fill="#1E1C1D" transform="translate(0,0)"/>
<path d="" fill="#212020" transform="translate(0,0)"/>
<path d="" fill="#201D1C" transform="translate(0,0)"/>
<path d="" fill="#212020" transform="translate(0,0)"/>
<path d="" fill="#1E1E1D" transform="translate(0,0)"/>
<path d="" fill="#21201E" transform="translate(0,0)"/>
<path d="" fill="#1E1D1E" transform="translate(0,0)"/>
<path d="" fill="#1C1B1C" transform="translate(0,0)"/>
<path d="" fill="#201F1D" transform="translate(0,0)"/>
<path d="" fill="#201F1E" transform="translate(0,0)"/>
<path d="" fill="#1E1D1F" transform="translate(0,0)"/>
<path d="" fill="#1F201E" transform="translate(0,0)"/>
<path d="" fill="#1E1D1A" transform="translate(0,0)"/>
<path d="" fill="#181817" transform="translate(0,0)"/>
<path d="" fill="#201D1E" transform="translate(0,0)"/>
<path d="" fill="#211E1D" transform="translate(0,0)"/>
<path d="" fill="#202021" transform="translate(0,0)"/>
<path d="" fill="#201F20" transform="translate(0,0)"/>
<path d="" fill="#1F201F" transform="translate(0,0)"/>
<path d="" fill="#1F201E" transform="translate(0,0)"/>
<path d="" fill="#1F1E1F" transform="translate(0,0)"/>
<path d="" fill="#222120" transform="translate(0,0)"/>
<path d="" fill="#1F1D1D" transform="translate(0,0)"/>
<path d="" fill="#1C1D1C" transform="translate(0,0)"/>
<path d="" fill="#1C1E1D" transform="translate(0,0)"/>
<path d="" fill="#201F1E" transform="translate(0,0)"/>
<path d="" fill="#201E1E" transform="translate(0,0)"/>
<path d="" fill="#1E1D1D" transform="translate(0,0)"/>
<path d="" fill="#1D1D1C" transform="translate(0,0)"/>
<path d="" fill="#1D1D1C" transform="translate(0,0)"/>
<path d="" fill="#1E1D1E" transform="translate(0,0)"/>
<path d="" fill="#1C1A19" transform="translate(0,0)"/>
<path d="" fill="#212220" transform="translate(0,0)"/>
<path d="" fill="#1E2120" transform="translate(0,0)"/>
<path d="" fill="#1F1F1E" transform="translate(0,0)"/>
<path d="" fill="#212120" transform="translate(0,0)"/>
<path d="" fill="#202021" transform="translate(0,0)"/>
<path d="" fill="#1D1C19" transform="translate(0,0)"/>
<path d="" fill="#1E1D1C" transform="translate(0,0)"/>
<path d="" fill="#1E1E1C" transform="translate(0,0)"/>
<path d="" fill="#1F1C1D" transform="translate(0,0)"/>
<path d="" fill="#1A1B19" transform="translate(0,0)"/>
<path d="" fill="#1E1F1E" transform="translate(0,0)"/>
<path d="" fill="#1E201D" transform="translate(0,0)"/>
<path d="" fill="#1F201D" transform="translate(0,0)"/>
<path d="" fill="#1E1D1F" transform="translate(0,0)"/>
<path d="" fill="#1D1F1E" transform="translate(0,0)"/>
<path d="" fill="#1E1C1D" transform="translate(0,0)"/>
<path d="" fill="#171818" transform="translate(0,0)"/>
<path d="" fill="#1A1C19" transform="translate(0,0)"/>
<path d="" fill="#202220" transform="translate(0,0)"/>
<path d="" fill="#21201F" transform="translate(0,0)"/>
<path d="" fill="#201F1E" transform="translate(0,0)"/>
<path d="" fill="#1E1D1C" transform="translate(0,0)"/>
<path d="" fill="#1F1C1C" transform="translate(0,0)"/>
<path d="" fill="#1E1E1C" transform="translate(0,0)"/>
<path d="" fill="#1E1E1D" transform="translate(0,0)"/>
<path d="" fill="#1E201D" transform="translate(0,0)"/>
<path d="" fill="#1D1C1E" transform="translate(0,0)"/>
<path d="" fill="#1F1E1C" transform="translate(0,0)"/>
<path d="" fill="#1E1D1D" transform="translate(0,0)"/>
<path d="" fill="#1F1D1E" transform="translate(0,0)"/>
<path d="" fill="#1F1D1E" transform="translate(0,0)"/>
<path d="" fill="#18191A" transform="translate(0,0)"/>
<path d="" fill="#20201E" transform="translate(0,0)"/>
<path d="" fill="#1D1D1B" transform="translate(0,0)"/>
<path d="" fill="#1F211F" transform="translate(0,0)"/>
<path d="" fill="#1C1B1A" transform="translate(0,0)"/>
<path d="" fill="#1D1D1C" transform="translate(0,0)"/>
<path d="" fill="#1E1E1E" transform="translate(0,0)"/>
<path d="" fill="#1E1E1E" transform="translate(0,0)"/>
<path d="" fill="#1B1D1B" transform="translate(0,0)"/>
<path d="" fill="#1C1A1B" transform="translate(0,0)"/>
<path d="" fill="#1B1B1A" transform="translate(0,0)"/>
<path d="" fill="#1E1C1C" transform="translate(0,0)"/>
<path d="" fill="#171814" transform="translate(0,0)"/>
<path d="" fill="#1F1F1F" transform="translate(0,0)"/>
<path d="" fill="#1C1C1A" transform="translate(0,0)"/>
<path d="" fill="#1D1D1D" transform="translate(0,0)"/>
<path d="" fill="#191717" transform="translate(0,0)"/>
<path d="" fill="#201E1E" transform="translate(0,0)"/>
<path d="" fill="#1B1C1B" transform="translate(0,0)"/>
<path d="" fill="#1F1F1D" transform="translate(0,0)"/>
<path d="" fill="#1F2020" transform="translate(0,0)"/>
<path d="" fill="#161415" transform="translate(0,0)"/>
<path d="" fill="#1D1F1D" transform="translate(0,0)"/>
<path d="" fill="#1E201F" transform="translate(0,0)"/>
<path d="" fill="#1F1D1C" transform="translate(0,0)"/>
<path d="" fill="#211D1F" transform="translate(0,0)"/>
<path d="" fill="#201D1D" transform="translate(0,0)"/>
<path d="" fill="#1F1D1D" transform="translate(0,0)"/>
<path d="" fill="#1E1B1C" transform="translate(0,0)"/>
<path d="" fill="#1A1B1A" transform="translate(0,0)"/>
<path d="" fill="#21211E" transform="translate(0,0)"/>
<path d="" fill="#1D1C1B" transform="translate(0,0)"/>
<path d="" fill="#181715" transform="translate(0,0)"/>
<path d="" fill="#20211F" transform="translate(0,0)"/>
<path d="" fill="#191915" transform="translate(0,0)"/>
<path d="" fill="#201F1D" transform="translate(0,0)"/>
<path d="" fill="#1F1E1D" transform="translate(0,0)"/>
<path d="" fill="#191716" transform="translate(0,0)"/>
<path d="" fill="#211F1E" transform="translate(0,0)"/>
<path d="" fill="#1F1D1D" transform="translate(0,0)"/>
<path d="" fill="#1E1D1D" transform="translate(0,0)"/>
<path d="" fill="#1F1F1C" transform="translate(0,0)"/>
<path d="" fill="#22211F" transform="translate(0,0)"/>
<path d="" fill="#1E1E1C" transform="translate(0,0)"/>
<path d="" fill="#1F1E1E" transform="translate(0,0)"/>
<path d="" fill="#1F1F1D" transform="translate(0,0)"/>
<path d="" fill="#1E1C1D" transform="translate(0,0)"/>
<path d="" fill="#1D1E1D" transform="translate(0,0)"/>
<path d="" fill="#1D201E" transform="translate(0,0)"/>
<path d="" fill="#201F1F" transform="translate(0,0)"/>
<path d="" fill="#20201F" transform="translate(0,0)"/>
<path d="" fill="#201F1E" transform="translate(0,0)"/>
<path d="" fill="#1F1F1F" transform="translate(0,0)"/>
<path d="" fill="#1F1E1E" transform="translate(0,0)"/>
<path d="" fill="#1C1E1D" transform="translate(0,0)"/>
<path d="" fill="#201E1E" transform="translate(0,0)"/>
<path d="" fill="#1F1F21" transform="translate(0,0)"/>
<path d="" fill="#1D1E1E" transform="translate(0,0)"/>
<path d="" fill="#1E1F1D" transform="translate(0,0)"/>
<path d="" fill="#201F1D" transform="translate(0,0)"/>
<path d="" fill="#201F1E" transform="translate(0,0)"/>
<path d="" fill="#1F1D1B" transform="translate(0,0)"/>
<path d="" fill="#1D1A1C" transform="translate(0,0)"/>
<path d="" fill="#1F1F1E" transform="translate(0,0)"/>
<path d="" fill="#201E1F" transform="translate(0,0)"/>
<path d="" fill="#212020" transform="translate(0,0)"/>
<path d="" fill="#1E1D1D" transform="translate(0,0)"/>
<path d="" fill="#1A1A19" transform="translate(0,0)"/>
<path d="" fill="#1E1D1D" transform="translate(0,0)"/>
<path d="" fill="#1E1E1D" transform="translate(0,0)"/>
<path d="" fill="#201E1E" transform="translate(0,0)"/>
<path d="" fill="#20211F" transform="translate(0,0)"/>
<path d="" fill="#1F2020" transform="translate(0,0)"/>
<path d="" fill="#202021" transform="translate(0,0)"/>
<path d="" fill="#211F1C" transform="translate(0,0)"/>
<path d="" fill="#1E201E" transform="translate(0,0)"/>
<path d="" fill="#211C1E" transform="translate(0,0)"/>
<path d="" fill="#201E1E" transform="translate(0,0)"/>
<path d="" fill="#201C1C" transform="translate(0,0)"/>
<path d="" fill="#1B1B1A" transform="translate(0,0)"/>
<path d="" fill="#1E1F20" transform="translate(0,0)"/>
<path d="" fill="#212120" transform="translate(0,0)"/>
<path d="" fill="#1C1F1E" transform="translate(0,0)"/>
<path d="" fill="#1F1D1D" transform="translate(0,0)"/>
<path d="" fill="#222221" transform="translate(0,0)"/>
<path d="" fill="#1E1F1F" transform="translate(0,0)"/>
<path d="" fill="#211F21" transform="translate(0,0)"/>
<path d="" fill="#20211F" transform="translate(0,0)"/>
<path d="" fill="#1E1F20" transform="translate(0,0)"/>
<path d="" fill="#1C1B18" transform="translate(0,0)"/>
<path d="" fill="#1B1A19" transform="translate(0,0)"/>
<path d="" fill="#1A1C1B" transform="translate(0,0)"/>
<path d="" fill="#1E201E" transform="translate(0,0)"/>
<path d="" fill="#20201F" transform="translate(0,0)"/>
<path d="" fill="#1F1E1B" transform="translate(0,0)"/>
<path d="" fill="#1F201E" transform="translate(0,0)"/>
<path d="" fill="#1C1D1E" transform="translate(0,0)"/>
<path d="" fill="#1E1B1C" transform="translate(0,0)"/>
<path d="" fill="#1E1F1C" transform="translate(0,0)"/>
<path d="" fill="#1F1F1F" transform="translate(0,0)"/>
<path d="" fill="#1D1D1C" transform="translate(0,0)"/>
<path d="" fill="#22201E" transform="translate(0,0)"/>
<path d="" fill="#1F201E" transform="translate(0,0)"/>
<path d="" fill="#201E20" transform="translate(0,0)"/>
<path d="" fill="#1F1E1F" transform="translate(0,0)"/>
<path d="" fill="#1D1C1D" transform="translate(0,0)"/>
<path d="" fill="#1B1A1A" transform="translate(0,0)"/>
<path d="" fill="#1D1D1C" transform="translate(0,0)"/>
<path d="" fill="#1F1F1E" transform="translate(0,0)"/>
<path d="" fill="#1F201D" transform="translate(0,0)"/>
<path d="" fill="#21201E" transform="translate(0,0)"/>
<path d="" fill="#1D1B1D" transform="translate(0,0)"/>
<path d="" fill="#201D1F" transform="translate(0,0)"/>
<path d="" fill="#201F1E" transform="translate(0,0)"/>
<path d="" fill="#212021" transform="translate(0,0)"/>
<path d="" fill="#211F1F" transform="translate(0,0)"/>
<path d="" fill="#212020" transform="translate(0,0)"/>
<path d="" fill="#191918" transform="translate(0,0)"/>
<path d="" fill="#1F1E1D" transform="translate(0,0)"/>
<path d="" fill="#1F201E" transform="translate(0,0)"/>
<path d="" fill="#1C1B1C" transform="translate(0,0)"/>
<path d="" fill="#1E1E1D" transform="translate(0,0)"/>
<path d="" fill="#1F201C" transform="translate(0,0)"/>
<path d="" fill="#21221E" transform="translate(0,0)"/>
<path d="" fill="#21201F" transform="translate(0,0)"/>
<path d="" fill="#1B1C1B" transform="translate(0,0)"/>
<path d="" fill="#221F20" transform="translate(0,0)"/>
<path d="" fill="#1F1F1F" transform="translate(0,0)"/>
<path d="" fill="#1E1E1E" transform="translate(0,0)"/>
<path d="" fill="#1E1D1C" transform="translate(0,0)"/>
<path d="" fill="#212121" transform="translate(0,0)"/>
<path d="" fill="#1F201F" transform="translate(0,0)"/>
<path d="" fill="#201D1C" transform="translate(0,0)"/>
<path d="" fill="#1F1F1E" transform="translate(0,0)"/>
<path d="" fill="#202120" transform="translate(0,0)"/>
<path d="" fill="#222120" transform="translate(0,0)"/>
<path d="" fill="#212022" transform="translate(0,0)"/>
<path d="" fill="#21201F" transform="translate(0,0)"/>
<path d="" fill="#1F1E1B" transform="translate(0,0)"/>
<path d="" fill="#222221" transform="translate(0,0)"/>
<path d="" fill="#262424" transform="translate(0,0)"/>
<path d="" fill="#222121" transform="translate(0,0)"/>
<path d="" fill="#21211F" transform="translate(0,0)"/>
<path d="" fill="#1B1A18" transform="translate(0,0)"/>
<path d="" fill="#1E1D1B" transform="translate(0,0)"/>
<path d="" fill="#1F1E1D" transform="translate(0,0)"/>
<path d="" fill="#211F20" transform="translate(0,0)"/>
<path d="" fill="#22211F" transform="translate(0,0)"/>
<path d="" fill="#21211E" transform="translate(0,0)"/>
<path d="" fill="#221F20" transform="translate(0,0)"/>
<path d="" fill="#1E201F" transform="translate(0,0)"/>
<path d="" fill="#1E1B1B" transform="translate(0,0)"/>
<path d="" fill="#201F1E" transform="translate(0,0)"/>
<path d="" fill="#211F1E" transform="translate(0,0)"/>
<path d="" fill="#22201F" transform="translate(0,0)"/>
<path d="" fill="#222121" transform="translate(0,0)"/>
<path d="" fill="#171718" transform="translate(0,0)"/>
<path d="" fill="#1E1D1D" transform="translate(0,0)"/>
<path d="" fill="#1D1F1D" transform="translate(0,0)"/>
<path d="" fill="#1C1D1C" transform="translate(0,0)"/>
<path d="" fill="#202020" transform="translate(0,0)"/>
<path d="" fill="#1F1D1D" transform="translate(0,0)"/>
<path d="" fill="#1F1D1C" transform="translate(0,0)"/>
<path d="" fill="#1F1D1C" transform="translate(0,0)"/>
<path d="" fill="#21201D" transform="translate(0,0)"/>
<path d="" fill="#20201F" transform="translate(0,0)"/>
<path d="" fill="#222121" transform="translate(0,0)"/>
<path d="" fill="#1F201E" transform="translate(0,0)"/>
<path d="" fill="#1E1F20" transform="translate(0,0)"/>
<path d="" fill="#1F1F1D" transform="translate(0,0)"/>
<path d="" fill="#1E1F1F" transform="translate(0,0)"/>
<path d="" fill="#1D1E1E" transform="translate(0,0)"/>
<path d="" fill="#1E1C1E" transform="translate(0,0)"/>
<path d="" fill="#171819" transform="translate(0,0)"/>
<path d="" fill="#201D1E" transform="translate(0,0)"/>
<path d="" fill="#1C1B1A" transform="translate(0,0)"/>
<path d="" fill="#1D1D1E" transform="translate(0,0)"/>
<path d="" fill="#1C1B1E" transform="translate(0,0)"/>
<path d="" fill="#181415" transform="translate(0,0)"/>
<path d="" fill="#20201F" transform="translate(0,0)"/>
<path d="" fill="#201F1F" transform="translate(0,0)"/>
<path d="" fill="#21211F" transform="translate(0,0)"/>
<path d="" fill="#20211E" transform="translate(0,0)"/>
<path d="" fill="#1D1F1C" transform="translate(0,0)"/>
<path d="" fill="#1F1E1E" transform="translate(0,0)"/>
<path d="" fill="#1D1A1C" transform="translate(0,0)"/>
<path d="" fill="#1C1D1B" transform="translate(0,0)"/>
<path d="" fill="#1D1D1C" transform="translate(0,0)"/>
<path d="" fill="#202021" transform="translate(0,0)"/>
<path d="" fill="#1E201E" transform="translate(0,0)"/>
<path d="" fill="#1F1F1F" transform="translate(0,0)"/>
<path d="" fill="#222321" transform="translate(0,0)"/>
<path d="" fill="#1B1A1B" transform="translate(0,0)"/>
<path d="" fill="#1D1E1B" transform="translate(0,0)"/>
<path d="" fill="#1D1D1E" transform="translate(0,0)"/>
<path d="" fill="#1C1D1B" transform="translate(0,0)"/>
<path d="" fill="#1C1C1C" transform="translate(0,0)"/>
<path d="" fill="#1D1E1B" transform="translate(0,0)"/>
<path d="" fill="#20201E" transform="translate(0,0)"/>
<path d="" fill="#1D1D1B" transform="translate(0,0)"/>
<path d="" fill="#1F1F1D" transform="translate(0,0)"/>
<path d="" fill="#222222" transform="translate(0,0)"/>
<path d="" fill="#1D1C1D" transform="translate(0,0)"/>
<path d="" fill="#1D1C1A" transform="translate(0,0)"/>
<path d="" fill="#1D1F1C" transform="translate(0,0)"/>
<path d="" fill="#222220" transform="translate(0,0)"/>
<path d="" fill="#191716" transform="translate(0,0)"/>
<path d="" fill="#22211F" transform="translate(0,0)"/>
<path d="" fill="#181918" transform="translate(0,0)"/>
<path d="" fill="#1A1B1B" transform="translate(0,0)"/>
<path d="" fill="#222220" transform="translate(0,0)"/>
<path d="" fill="#1F1F1F" transform="translate(0,0)"/>
<path d="" fill="#1A1A1A" transform="translate(0,0)"/>
<path d="" fill="#212221" transform="translate(0,0)"/>
<path d="" fill="#1B1B19" transform="translate(0,0)"/>
<path d="" fill="#221F20" transform="translate(0,0)"/>
<path d="" fill="#20201F" transform="translate(0,0)"/>
<path d="" fill="#201F1E" transform="translate(0,0)"/>
<path d="" fill="#252323" transform="translate(0,0)"/>
<path d="" fill="#201E1E" transform="translate(0,0)"/>
<path d="" fill="#20201F" transform="translate(0,0)"/>
<path d="" fill="#1B1B16" transform="translate(0,0)"/>
<path d="" fill="#222320" transform="translate(0,0)"/>
<path d="" fill="#252623" transform="translate(0,0)"/>
<path d="" fill="#222021" transform="translate(0,0)"/>
<path d="" fill="#272826" transform="translate(0,0)"/>
<path d="" fill="#262626" transform="translate(0,0)"/>
<path d="" fill="#262726" transform="translate(0,0)"/>
<path d="" fill="#262526" transform="translate(0,0)"/>
<path d="" fill="#282927" transform="translate(0,0)"/>
<path d="" fill="#1C1A1A" transform="translate(0,0)"/>
<path d="" fill="#20201D" transform="translate(0,0)"/>
<path d="" fill="#20211F" transform="translate(0,0)"/>
<path d="" fill="#22231F" transform="translate(0,0)"/>
<path d="" fill="#222321" transform="translate(0,0)"/>
<path d="" fill="#1B1C1B" transform="translate(0,0)"/>
<path d="" fill="#20211D" transform="translate(0,0)"/>
<path d="" fill="#242423" transform="translate(0,0)"/>
<path d="" fill="#201C1C" transform="translate(0,0)"/>
<path d="" fill="#212120" transform="translate(0,0)"/>
<path d="" fill="#212421" transform="translate(0,0)"/>
<path d="" fill="#242323" transform="translate(0,0)"/>
<path d="" fill="#21231F" transform="translate(0,0)"/>
<path d="" fill="#242223" transform="translate(0,0)"/>
<path d="" fill="#222323" transform="translate(0,0)"/>
<path d="" fill="#202021" transform="translate(0,0)"/>
<path d="" fill="#242223" transform="translate(0,0)"/>
<path d="" fill="#232220" transform="translate(0,0)"/>
<path d="" fill="#232321" transform="translate(0,0)"/>
<path d="" fill="#212222" transform="translate(0,0)"/>
<path d="" fill="#1B1C1D" transform="translate(0,0)"/>
<path d="" fill="#1F1F1E" transform="translate(0,0)"/>
<path d="" fill="#1F1F1D" transform="translate(0,0)"/>
<path d="" fill="#22201D" transform="translate(0,0)"/>
<path d="" fill="#1D1D1C" transform="translate(0,0)"/>
<path d="" fill="#1F201E" transform="translate(0,0)"/>
<path d="" fill="#201F1D" transform="translate(0,0)"/>
<path d="" fill="#1E201E" transform="translate(0,0)"/>
<path d="" fill="#232121" transform="translate(0,0)"/>
<path d="" fill="#2C2B29" transform="translate(0,0)"/>
<path d="" fill="#151516" transform="translate(0,0)"/>
<path d="" fill="#232323" transform="translate(0,0)"/>
<path d="" fill="#242121" transform="translate(0,0)"/>
<path d="" fill="#1E1C1D" transform="translate(0,0)"/>
<path d="" fill="#1E1F1E" transform="translate(0,0)"/>
<path d="" fill="#201E1E" transform="translate(0,0)"/>
<path d="" fill="#1D1C1D" transform="translate(0,0)"/>
<path d="" fill="#222121" transform="translate(0,0)"/>
<path d="" fill="#211F1F" transform="translate(0,0)"/>
<path d="" fill="#252221" transform="translate(0,0)"/>
<path d="" fill="#1E1D1A" transform="translate(0,0)"/>
<path d="" fill="#221F20" transform="translate(0,0)"/>
<path d="" fill="#1E201D" transform="translate(0,0)"/>
<path d="" fill="#252624" transform="translate(0,0)"/>
<path d="" fill="#2F2F2F" transform="translate(0,0)"/>
<path d="" fill="#20201F" transform="translate(0,0)"/>
<path d="" fill="#171515" transform="translate(0,0)"/>
<path d="" fill="#242322" transform="translate(0,0)"/>
<path d="" fill="#2D2D2E" transform="translate(0,0)"/>
<path d="" fill="#171818" transform="translate(0,0)"/>
<path d="" fill="#232121" transform="translate(0,0)"/>
<path d="" fill="#21201F" transform="translate(0,0)"/>
<path d="" fill="#212121" transform="translate(0,0)"/>
<path d="" fill="#232321" transform="translate(0,0)"/>
<path d="" fill="#20201F" transform="translate(0,0)"/>
<path d="" fill="#232120" transform="translate(0,0)"/>
<path d="" fill="#201F1F" transform="translate(0,0)"/>
<path d="" fill="#191A19" transform="translate(0,0)"/>
<path d="" fill="#21211E" transform="translate(0,0)"/>
<path d="" fill="#1C1C19" transform="translate(0,0)"/>
<path d="" fill="#1C191B" transform="translate(0,0)"/>
<path d="" fill="#1E1C1C" transform="translate(0,0)"/>
<path d="" fill="#20221F" transform="translate(0,0)"/>
<path d="" fill="#1E1F1D" transform="translate(0,0)"/>
<path d="" fill="#1E1F1C" transform="translate(0,0)"/>
<path d="" fill="#1F1F1E" transform="translate(0,0)"/>
<path d="" fill="#201F1D" transform="translate(0,0)"/>
<path d="" fill="#1E1E1E" transform="translate(0,0)"/>
<path d="" fill="#1A1B1B" transform="translate(0,0)"/>
<path d="" fill="#191B19" transform="translate(0,0)"/>
<path d="" fill="#191716" transform="translate(0,0)"/>
<path d="" fill="#1F201E" transform="translate(0,0)"/>
<path d="" fill="#191818" transform="translate(0,0)"/>
<path d="" fill="#1A181D" transform="translate(0,0)"/>
<path d="" fill="#20201F" transform="translate(0,0)"/>
<path d="" fill="#1F201E" transform="translate(0,0)"/>
<path d="" fill="#232222" transform="translate(0,0)"/>
<path d="" fill="#1F1F1E" transform="translate(0,0)"/>
<path d="" fill="#1F201D" transform="translate(0,0)"/>
<path d="" fill="#1E1F1F" transform="translate(0,0)"/>
<path d="" fill="#232221" transform="translate(0,0)"/>
<path d="" fill="#1E1E1B" transform="translate(0,0)"/>
<path d="" fill="#221E1E" transform="translate(0,0)"/>
<path d="" fill="#1A1A1A" transform="translate(0,0)"/>
<path d="" fill="#1E1E1C" transform="translate(0,0)"/>
<path d="" fill="#1E1D1E" transform="translate(0,0)"/>
<path d="" fill="#1F1E1D" transform="translate(0,0)"/>
<path d="" fill="#1B1E1D" transform="translate(0,0)"/>
<path d="" fill="#201D1B" transform="translate(0,0)"/>
<path d="" fill="#1E1E1E" transform="translate(0,0)"/>
<path d="" fill="#1F1F1E" transform="translate(0,0)"/>
<path d="" fill="#262324" transform="translate(0,0)"/>
<path d="" fill="#1D1E1D" transform="translate(0,0)"/>
<path d="" fill="#201E1F" transform="translate(0,0)"/>
<path d="" fill="#21201E" transform="translate(0,0)"/>
<path d="" fill="#1F1E1E" transform="translate(0,0)"/>
<path d="" fill="#1E1F1E" transform="translate(0,0)"/>
<path d="" fill="#201E1E" transform="translate(0,0)"/>
<path d="" fill="#1F1F1E" transform="translate(0,0)"/>
<path d="" fill="#202120" transform="translate(0,0)"/>
<path d="" fill="#211E1E" transform="translate(0,0)"/>
<path d="" fill="#212021" transform="translate(0,0)"/>
<path d="" fill="#1F1D1C" transform="translate(0,0)"/>
<path d="" fill="#1F1F1D" transform="translate(0,0)"/>
<path d="" fill="#252424" transform="translate(0,0)"/>
<path d="" fill="#1E1F1E" transform="translate(0,0)"/>
<path d="" fill="#252523" transform="translate(0,0)"/>
<path d="" fill="#1C1D1D" transform="translate(0,0)"/>
<path d="" fill="#202220" transform="translate(0,0)"/>
<path d="" fill="#272526" transform="translate(0,0)"/>
<path d="" fill="#1F1E1D" transform="translate(0,0)"/>
<path d="" fill="#161514" transform="translate(0,0)"/>
<path d="" fill="#1E1F1E" transform="translate(0,0)"/>
<path d="" fill="#1F201D" transform="translate(0,0)"/>
<path d="" fill="#1A1A18" transform="translate(0,0)"/>
<path d="" fill="#212020" transform="translate(0,0)"/>
<path d="" fill="#21201F" transform="translate(0,0)"/>
<path d="" fill="#222221" transform="translate(0,0)"/>
<path d="" fill="#21221F" transform="translate(0,0)"/>
<path d="" fill="#1F1E1D" transform="translate(0,0)"/>
<path d="" fill="#1F2020" transform="translate(0,0)"/>
<path d="" fill="#212120" transform="translate(0,0)"/>
<path d="" fill="#20201F" transform="translate(0,0)"/>
<path d="" fill="#1F201F" transform="translate(0,0)"/>
<path d="" fill="#232323" transform="translate(0,0)"/>
<path d="" fill="#222221" transform="translate(0,0)"/>
<path d="" fill="#232022" transform="translate(0,0)"/>
<path d="" fill="#272525" transform="translate(0,0)"/>
<path d="" fill="#292324" transform="translate(0,0)"/>
<path d="" fill="#252221" transform="translate(0,0)"/>
<path d="" fill="#282626" transform="translate(0,0)"/>
<path d="" fill="#262525" transform="translate(0,0)"/>
<path d="" fill="#21211E" transform="translate(0,0)"/>
<path d="" fill="#212422" transform="translate(0,0)"/>
<path d="" fill="#272726" transform="translate(0,0)"/>
<path d="" fill="#282825" transform="translate(0,0)"/>
<path d="" fill="#272625" transform="translate(0,0)"/>
<path d="" fill="#272728" transform="translate(0,0)"/>
<path d="" fill="#272625" transform="translate(0,0)"/>
<path d="" fill="#252525" transform="translate(0,0)"/>
<path d="" fill="#272824" transform="translate(0,0)"/>
<path d="" fill="#262525" transform="translate(0,0)"/>
<path d="" fill="#25241F" transform="translate(0,0)"/>
</svg>
